<svg width="140" height="80" viewBox="0 0 140 80" fill="none" xmlns="http://www.w3.org/2000/svg"><g clip-path="url(#clip0_4034_19096)"><path d="M81.255 30.77h4.631c-.069.137-.085.211-.114.22-1.249.32-1.267.341-1.293 1.707-.065 3.33-.128 6.66-.19 9.988-.006.293.103.678-.238.82-.341.143-.614-.148-.854-.372-2.587-2.408-5.152-4.84-7.597-7.39-.415-.432-.817-.878-1.288-1.386a3.71 3.71 0 0 0-.074 1.864c.02 1.78.048 3.56.154 5.336.071 1.19.15 1.203 1.354 1.425.1.027.198.063.293.105-.135.372-.427.256-.65.256-2.009.008-4.018 0-6.026 0a3.105 3.105 0 0 1-2.318-.984 27.194 27.194 0 0 1-2.701-3.5 1.93 1.93 0 0 0-2.077-.712.417.417 0 0 0-.314.458 27.286 27.286 0 0 0 .124 3.5.846.846 0 0 0 .84.817.885.885 0 0 1 .797.312h-5.378c.039-.085.053-.192.098-.206 1.2-.392 1.19-.394 1.249-1.673.128-2.822.04-5.647.06-8.47.01-1.468-.026-1.483-1.463-1.874a.595.595 0 0 1-.17-.122c.133-.28.361-.235.547-.218 2.03.177 4.065-.138 6.094.07a3.244 3.244 0 0 1 2.988 1.894 3.168 3.168 0 0 1-.769 3.445c-.13.157-.273.3-.417.446-.92.939-.93.945-.06 1.985.88 1.053 1.775 2.094 2.684 3.122a3.278 3.278 0 0 0 2.56 1.301c.564-.01.928-.218.969-.827.023-.355.073-.71.079-1.064a4964 4964 0 0 0 .14-9.69c.006-.323-.092-.732.257-.897.386-.183.576.226.796.446 2.83 2.818 5.656 5.64 8.48 8.463.147.146.257.456.528.322.202-.101.106-.372.103-.565-.041-2.212-.074-4.425-.145-6.636-.038-1.181-.157-1.273-1.386-1.436-.134-.003-.248-.03-.303-.28ZM61.94 34.38v2.058a.697.697 0 0 0 .27.672 3.836 3.836 0 0 0 2.5-.202 3.383 3.383 0 0 0 .756-3.778 2.652 2.652 0 0 0-2.948-1.519c-.415.052-.583.238-.58.635.007.712.002 1.423.001 2.135ZM49.536 45.522a8.187 8.187 0 0 1 4.873 1.22c2.8 1.91 3.375 6.146 1.25 9.11-2.639 3.68-9.054 3.805-11.806.229a6.522 6.522 0 0 1 4.02-10.375 9.32 9.32 0 0 1 1.663-.184Zm4.74 7.212a6.335 6.335 0 0 0-1.602-4.848 4.46 4.46 0 0 0-4.751-1.228c-1.69.513-2.395 1.837-2.676 3.472a7.31 7.31 0 0 0-.117 1.82c.17 2.117.827 3.989 2.78 5.132a3.994 3.994 0 0 0 6.206-2.758 7.58 7.58 0 0 0 .16-1.59Zm44.458-18.268c0 .728-.013 1.425 0 2.121.034 1.474.077 2.949.13 4.423.01.303.073.604.1.907a1.018 1.018 0 0 0 1.082 1.037.585.585 0 0 1 .574.278h-4.714c.027-.059.04-.162.086-.177 1.29-.453 1.302-.45 1.332-1.841.044-2.035.07-4.07.098-6.103.018-1.272.025-2.544.04-3.816 0-.302-.07-.677.25-.827.39-.182.582.215.802.435 2.812 2.798 5.62 5.6 8.424 8.405.171.17.303.413.663.46 0-1.222.015-2.43 0-3.638a115.64 115.64 0 0 0-.116-3.659c-.052-1.14-.211-1.29-1.332-1.409-.123-.012-.256 0-.314-.152a12.637 12.637 0 0 1 4.537-.085c-.006.047 0 .128-.022.135-1.253.427-1.275.427-1.306 1.85-.068 3.128-.104 6.256-.171 9.383-.009.46.171 1.092-.341 1.308-.48.203-.796-.36-1.11-.66-2.779-2.646-5.602-5.251-8.208-8.075a.697.697 0 0 0-.484-.3ZM76.149 45.954a12.497 12.497 0 0 1 4.59 0c-.01.023-.017.068-.028.068-1.362.098-1.34 1.057-1.35 2.069-.037 3.202-.114 6.403-.183 9.604-.006.317.127.738-.242.895-.341.143-.618-.162-.854-.386-2.731-2.588-5.499-5.13-8.064-7.882a1.263 1.263 0 0 0-.153-.171c-.233-.17-.388-.604-.697-.474-.276.116-.08.504-.074.769.051 2.107.042 4.216.199 6.317.06.815.37 1.296 1.248 1.28.134 0 .335.011.325.224-.006.164-.17.176-.29.176-1.395 0-2.791-.01-4.187-.028-.052 0-.105-.085-.143-.117a.232.232 0 0 1 .199-.224c1.155-.361 1.23-.448 1.246-1.657.048-3.278.091-6.557.132-9.835a2.13 2.13 0 0 1 0-.23c.037-.291-.085-.682.25-.821.337-.14.557.17.77.384a7956 7956 0 0 1 8.548 8.589c.15.151.276.446.533.332.216-.096.085-.36.079-.554a7907.5 7907.5 0 0 1-.158-6.403c-.034-1.432-.032-1.43-1.451-1.756-.087-.013-.154-.1-.245-.169Zm44.587-8.831h5.304c-.106.148-.144.256-.189.256-1.11.075-1.14.832-1.11 1.68.033 1.016-.01 2.034 0 3.051a.817.817 0 0 1-.647.897 11.216 11.216 0 0 1-8.951-.654c-2.187-1.195-3.022-3.229-2.915-5.642a6.031 6.031 0 0 1 3.34-5.362 9.19 9.19 0 0 1 4.813-.907c1.244.063 2.482.205 3.708.427.251.043.532.044.52.413-.029.839-.054 1.678-.086 2.516-.006.146-.024.324-.234.322-.152 0-.208-.125-.235-.256-.35-1.643-1.688-2.05-3.046-2.362a6.198 6.198 0 0 0-2.732-.005 3.977 3.977 0 0 0-3.244 3.165 6.964 6.964 0 0 0 .667 5.172 5.8 5.8 0 0 0 5.87 2.732c.523-.092.817-.33.802-.91-.023-.966.006-1.933-.008-2.902-.015-.97-.157-1.121-1.11-1.295-.199-.035-.427-.007-.517-.336Zm-72.488-6.206c-1.708.077-1.44 1.276-1.43 2.29a45.296 45.296 0 0 0 .136 6.472 3.17 3.17 0 0 0 3.857 2.853 2.94 2.94 0 0 0 2.67-2.706c.208-2.635.225-5.282.051-7.92-.023-.543-.383-.722-.843-.818-.23-.048-.52.092-.742-.31h4.732c-.045.113-.052.19-.08.198-1.257.375-1.22.376-1.281 1.754-.093 2.157.108 4.319-.148 6.473a4.689 4.689 0 0 1-4.723 4.374c-.61.034-1.22.018-1.827-.048a4.403 4.403 0 0 1-4.162-4.468c-.104-1.901-.051-3.812-.059-5.72-.007-1.89 0-1.89-1.622-2.41.379-.283 4.556-.378 5.47-.014Z" fill="#142144"/><path d="M104.185 46.03c-1.523.022-1.477.953-1.459 1.836.045 2.26-.146 4.525.104 6.782a3.362 3.362 0 0 0 1.961 2.81 3.37 3.37 0 0 0 3.408-.36 3.145 3.145 0 0 0 1.009-1.178 3.15 3.15 0 0 0 .321-1.518c.044-2.134.038-4.268.043-6.403 0-1.566 0-1.566-1.399-2.08a37.73 37.73 0 0 1 4.268-.09c-.02.116-.018.188-.036.193-1.15.342-1.202.4-1.212 1.622-.013 1.78-.025 3.56-.025 5.34 0 4.916-3.329 6.126-6.983 5.494-2.34-.403-3.633-2.006-3.763-4.498a63.54 63.54 0 0 1-.022-5.64c.066-1.803-.005-1.91-1.548-2.371a19.326 19.326 0 0 1 5.333.062Z" fill="#C41E49"/><path d="M36.755 58.222c-.157.31-.444.228-.675.222-1.397-.038-2.793-.086-4.19 0-.181.012-.477.1-.513-.166-.042-.295.272-.263.444-.263.538 0 .675-.341.769-.776a10.9 10.9 0 0 0 .117-2.205 544.33 544.33 0 0 0-.016-7.473c-.01-1.163-.06-1.195-1.214-1.414a1.128 1.128 0 0 1-.282-.101c-.04-.02-.06-.077-.086-.118.02-.044.039-.127.06-.127a57.76 57.76 0 0 1 6.696.04 2.867 2.867 0 0 1 2.871 2.194 3.606 3.606 0 0 1-1.366 3.796 4.568 4.568 0 0 1-3.06.966c-.17 0-.412-.01-.426-.23-.012-.233.225-.217.397-.247 1.669-.287 2.476-1.435 2.284-3.254a2.692 2.692 0 0 0-2.841-2.499c-.472.015-.698.171-.694.665.02 3.203.03 6.403.048 9.608 0 .748.301 1.218 1.143 1.174a.523.523 0 0 1 .534.208Z" fill="#142144"/><path d="M136.664 58.337h-3.691c-.139 0-.326.023-.309-.217.092-1.312-.769-2.32-1.11-3.496a.631.631 0 0 0-.704-.453c-1.069.01-2.137.01-3.206 0a.77.77 0 0 0-.803.556c-.237.617-.517 1.218-.759 1.832-.44 1.114-.378 1.262.853 1.762h-4.083a.58.58 0 0 1 .007-.117c1.16-.155 1.589-1.017 1.99-1.964 1.418-3.347 2.867-6.682 4.313-10.017.124-.288.16-.728.561-.738.4-.01.457.426.581.712 1.325 3.083 2.644 6.168 3.958 9.256.089.21.177.422.27.63.44.986.859 1.992 2.204 2.071l-.072.183Zm-7.481-4.99c.381 0 .762-.006 1.143 0 .471.008.668-.147.468-.645-.435-1.085-.84-2.18-1.273-3.265-.058-.145-.065-.399-.298-.379-.205.016-.237.242-.301.401-.293.731-.583 1.463-.869 2.197-.655 1.676-.654 1.676 1.131 1.688l-.001.002Z" fill="#C41E49"/><path d="M91.24 58.355h-5.657c.074-.146.085-.215.12-.228 1.177-.473 1.21-.495 1.222-1.77.027-2.973.027-5.947.06-8.92.006-.498-.13-.665-.648-.617-.807.076-1.622.07-2.434.1a1.339 1.339 0 0 0-1.35.805c-.06.148-.133.378-.371.27-.163-.075-.116-.263-.105-.41.008-.102.026-.202.05-.3.037-.53.176-1.047.41-1.523.363-.463.977.01 1.488 0 3.1-.04 6.2-.018 9.3-.066.537-.008.668.148.636.629-.031.455-.01.914-.023 1.37-.005.171.048.411-.171.457-.256.054-.244-.206-.277-.364a1.046 1.046 0 0 0-.854-.78 13.568 13.568 0 0 0-2.956-.192c-.332-.024-.327.25-.327.483.014 3.227.02 6.454.05 9.681.006.635.288 1.072 1.03 1.025a.797.797 0 0 1 .808.35ZM41.706 33.4c-.199-1.365-1.017-1.543-1.97-1.6-2.402-.14-2.41-.156-2.399 2.246.012 2.49 0 4.98.086 7.468.046 1.288.135 1.286 1.421 1.466a.341.341 0 0 1 .353.269H33.62c.04-.112.047-.19.073-.198 1.195-.341 1.238-.347 1.25-1.59.033-3.05.014-6.099.035-9.148 0-.459-.194-.558-.598-.54-.863.04-1.727.048-2.59.07a1.28 1.28 0 0 0-1.16.732c-.078.143-.124.383-.362.307-.238-.075-.159-.287-.127-.456.098-.524.206-1.045.31-1.569.062-.309.224-.381.547-.341a60.7 60.7 0 0 0 10.34.105c.5-.025.745.057.655.592-.11.637.144 1.31-.286 2.188Z" fill="#142144"/><path d="M114.224 55.234c.335.085.286.292.321.455a2.933 2.933 0 0 0 3.204 2.105 2.92 2.92 0 0 0 1.287-.496 2.139 2.139 0 0 0 .797-1.465 2.146 2.146 0 0 0-.504-1.59 7.133 7.133 0 0 0-1.91-1.375 8.89 8.89 0 0 1-2.02-1.484 3.238 3.238 0 0 1-.16-4.556 3.23 3.23 0 0 1 1.409-.89 7.896 7.896 0 0 1 4.216-.172c.291.05.542.188.526.545.025.678-.013 1.356-.113 2.027-.256 0-.25-.188-.3-.32a2.569 2.569 0 0 0-1.599-1.567 2.575 2.575 0 0 0-2.222.273 1.673 1.673 0 0 0-.355 2.764c.623.523 1.304.972 2.029 1.34.52.317 1.022.663 1.503 1.037a3.627 3.627 0 0 1 1.324 3.82 3.522 3.522 0 0 1-2.783 2.736 7.837 7.837 0 0 1-4.212-.128.733.733 0 0 1-.617-.82c-.014-.751.046-1.5.179-2.24Z" fill="#C41E49"/><path d="M64.302 58.332a2.82 2.82 0 0 1-1.4.104c-1.196-.067-2.386-.033-3.578.017-.186.007-.481.085-.52-.171-.046-.294.267-.256.441-.263.512-.02.715-.316.748-.78.042-.606.11-1.213.113-1.821.011-2.54 0-5.081 0-7.622 0-1.303 0-1.302-1.195-1.696-.063-.02-.107-.098-.27-.256h5.138c.037.164-.06.256-.144.256-1.076.021-1.15.74-1.143 1.567.02 3.049.013 6.096.035 9.145.006.959.163 1.09 1.162 1.203.206.024.462-.028.613.317ZM93.477 30.77c-.052.126-.06.17-.071.17-1.25.121-1.3.998-1.29 1.97.03 2.844-.005 5.69.051 8.537.026 1.317.096 1.316 1.42 1.54a.427.427 0 0 1 .39.26h-5.588c.035-.1.04-.17.067-.181 1.21-.373 1.191-.374 1.254-1.656.133-2.691.048-5.383.059-8.074 0-1.051.318-2.332-1.55-2.359l.17-.202 5.088-.005Z" fill="#142144"/><path d="M51.46 11.346 35.762-.195V6.64a36.636 36.636 0 0 0-33.88 34.51h3.695A33.012 33.012 0 0 1 35.76 10.346v1.868a31.153 31.153 0 0 0-28.32 28.94h4.413a26.686 26.686 0 0 1 23.907-24.52v6.192l15.698-11.48Z" fill="#C41E49"/><path d="M11.896 45.668H1.914a36.631 36.631 0 0 0 36.547 34.139v-9.95a26.682 26.682 0 0 1-26.565-24.189ZM6.262 56.371l.548-2.497-1.687-1.49 2.279-.262 1.095-2.19 1.052 2.103 2.278.263-1.622 1.536.482 2.542-2.191-1.096-2.234 1.091Zm9.19 8.737-2.19-1.095-2.235 1.095.548-2.497-1.687-1.49 2.279-.263 1.095-2.191 1.052 2.103 2.278.263-1.622 1.537.483 2.538Zm7.399 7.347-2.191-1.096-2.235 1.096.548-2.497-1.687-1.49 2.279-.263 1.095-2.19 1.052 2.103 2.278.263-1.622 1.537.483 2.537ZM33.07 77.22l-2.191-1.095-2.235 1.095.549-2.497-1.687-1.49 2.278-.263 1.095-2.19 1.052 2.103 2.279.263-1.622 1.537.482 2.537Z" fill="#142144"/></g><defs><clipPath id="clip0_4034_19096"><path fill="#fff" d="M0 0h140v80H0z"/></clipPath></defs></svg>